<svg width="1200" height="950" xmlns="http://www.w3.org/2000/svg">
  <rect width="1200" height="950" fill="#f5f6fa"/>
  
  <!-- Header -->
  <rect x="20" y="20" width="1160" height="60" fill="#34495e" rx="8"/>
  <text x="40" y="55" fill="white" font-family="Arial" font-size="24" font-weight="bold">📈 Динамика загрузки менеджеров</text>
  
  <!-- Filters Panel -->
  <rect x="20" y="90" width="1160" height="80" fill="white" rx="8" stroke="#ddd"/>
  <text x="40" y="115" fill="#2c3e50" font-family="Arial" font-size="16" font-weight="bold">🔍 Фильтры</text>
  
  <!-- Date Filter -->
  <text x="40" y="140" fill="#2c3e50" font-family="Arial" font-size="12" font-weight="bold">📅 Период:</text>
  
  <!-- Date From -->
  <rect x="120" y="125" width="120" height="25" fill="#f8f9fa" stroke="#bdc3c7" rx="4"/>
  <text x="130" y="142" fill="#7f8c8d" font-family="Arial" font-size="11">01.01.2024</text>
  <text x="100" y="142" fill="#2c3e50" font-family="Arial" font-size="11">С:</text>
  
  <!-- Date To -->
  <rect x="270" y="125" width="120" height="25" fill="#f8f9fa" stroke="#bdc3c7" rx="4"/>
  <text x="280" y="142" fill="#7f8c8d" font-family="Arial" font-size="11">31.12.2024</text>
  <text x="250" y="142" fill="#2c3e50" font-family="Arial" font-size="11">По:</text>
  
  <!-- Quick Date Buttons -->
  <rect x="410" y="125" width="60" height="25" fill="#ecf0f1" stroke="#bdc3c7" rx="4"/>
  <text x="425" y="142" fill="#2c3e50" font-family="Arial" font-size="10">7 дней</text>
  
  <rect x="480" y="125" width="60" height="25" fill="#ecf0f1" stroke="#bdc3c7" rx="4"/>
  <text x="490" y="142" fill="#2c3e50" font-family="Arial" font-size="10">30 дней</text>
  
  <rect x="550" y="125" width="60" height="25" fill="#3498db" stroke="#3498db" rx="4"/>
  <text x="565" y="142" fill="white" font-family="Arial" font-size="10">90 дней</text>
  
  <!-- Manager Filter -->
  <text x="650" y="140" fill="#2c3e50" font-family="Arial" font-size="12" font-weight="bold">👥 Менеджеры:</text>
  
  <!-- Manager Dropdown -->
  <rect x="750" y="125" width="180" height="25" fill="#f8f9fa" stroke="#bdc3c7" rx="4"/>
  <text x="760" y="142" fill="#2c3e50" font-family="Arial" font-size="11">Все менеджеры</text>
  <polygon points="920,132 925,140 930,132" fill="#7f8c8d"/>
  
  <!-- Apply Button -->
  <rect x="950" y="125" width="80" height="25" fill="#27ae60" stroke="#27ae60" rx="4"/>
  <text x="970" y="142" fill="white" font-family="Arial" font-size="11" font-weight="bold">Применить</text>
  
  <!-- Reset Button -->
  <rect x="1040" y="125" width="60" height="25" fill="#95a5a6" stroke="#95a5a6" rx="4"/>
  <text x="1055" y="142" fill="white" font-family="Arial" font-size="11">Сброс</text>
  
  <!-- Export Button -->
  <rect x="1110" y="125" width="60" height="25" fill="#34495e" stroke="#34495e" rx="4"/>
  <text x="1122" y="142" fill="white" font-family="Arial" font-size="11">📊 Excel</text>
  
  <!-- Active Filters Display -->
  <text x="40" y="162" fill="#7f8c8d" font-family="Arial" font-size="10">Активные фильтры:</text>
  <rect x="140" y="152" width="80" height="18" fill="#e8f4fd" stroke="#3498db" rx="9"/>
  <text x="150" y="164" fill="#3498db" font-family="Arial" font-size="9">90 дней</text>
  <circle cx="210" cy="161" r="6" fill="#3498db"/>
  <text x="207" y="165" fill="white" font-family="Arial" font-size="8">×</text>
  
  <rect x="230" y="152" width="100" height="18" fill="#e8f6f0" stroke="#27ae60" rx="9"/>
  <text x="240" y="164" fill="#27ae60" font-family="Arial" font-size="9">Все менеджеры</text>
  <circle cx="320" cy="161" r="6" fill="#27ae60"/>
  <text x="317" y="165" fill="white" font-family="Arial" font-size="8">×</text>
  
  <!-- Trend Cards -->
  <rect x="30" y="180" width="270" height="100" fill="white" rx="8" stroke="#ddd"/>
  <text x="50" y="210" fill="#2c3e50" font-family="Arial" font-size="14">📈 Новые задачи за неделю</text>
  <text x="50" y="245" fill="#27ae60" font-family="Arial" font-size="32" font-weight="bold">+18</text>
  <text x="50" y="265" fill="#7f8c8d" font-family="Arial" font-size="11">↑ на 12% vs прошлой неделе</text>
  
  <rect x="320" y="180" width="270" height="100" fill="white" rx="8" stroke="#ddd"/>
  <text x="340" y="210" fill="#2c3e50" font-family="Arial" font-size="14">✅ Закрытые задачи за неделю</text>
  <text x="340" y="245" fill="#3498db" font-family="Arial" font-size="32" font-weight="bold">+15</text>
  <text x="340" y="265" fill="#7f8c8d" font-family="Arial" font-size="11">↑ на 8% vs прошлой неделе</text>
  
  <rect x="610" y="180" width="270" height="100" fill="white" rx="8" stroke="#ddd"/>
  <text x="630" y="210" fill="#2c3e50" font-family="Arial" font-size="14">📊 Скорость закрытия</text>
  <text x="630" y="245" fill="#9b59b6" font-family="Arial" font-size="32" font-weight="bold">3.2</text>
  <text x="630" y="265" fill="#7f8c8d" font-family="Arial" font-size="11">дня в среднем</text>
  
  <rect x="900" y="180" width="270" height="100" fill="white" rx="8" stroke="#ddd"/>
  <text x="920" y="210" fill="#2c3e50" font-family="Arial" font-size="14">🔄 Изменение загрузки</text>
  <text x="920" y="245" fill="#e74c3c" font-family="Arial" font-size="32" font-weight="bold">+2.3%</text>
  <text x="920" y="265" fill="#7f8c8d" font-family="Arial" font-size="11">vs прошлый месяц</text>
  
  <!-- Time Series Chart -->
  <rect x="30" y="310" width="570" height="280" fill="white" rx="8" stroke="#ddd"/>
  <text x="50" y="340" fill="#2c3e50" font-family="Arial" font-size="16" font-weight="bold">📊 Динамика задач </text>
  <rect x="220" y="325" width="120" height="20" fill="#e8f4fd" stroke="#3498db" rx="10"/>
  <text x="230" y="338" fill="#3498db" font-family="Arial" font-size="11" font-weight="bold">последние 90 дней</text>
  
  <!-- Chart background -->
  <rect x="80" y="360" width="480" height="180" fill="#f8f9fa" stroke="#e0e0e0"/>
  
  <!-- Y-axis -->
  <line x1="80" y1="360" x2="80" y2="540" stroke="#bdc3c7" stroke-width="1"/>
  <text x="70" y="370" fill="#7f8c8d" font-family="Arial" font-size="10">40</text>
  <text x="70" y="410" fill="#7f8c8d" font-family="Arial" font-size="10">30</text>
  <text x="70" y="450" fill="#7f8c8d" font-family="Arial" font-size="10">20</text>
  <text x="70" y="490" fill="#7f8c8d" font-family="Arial" font-size="10">10</text>
  <text x="70" y="530" fill="#7f8c8d" font-family="Arial" font-size="10">0</text>
  
  <!-- X-axis -->
  <line x1="80" y1="540" x2="560" y2="540" stroke="#bdc3c7" stroke-width="1"/>
  <text x="100" y="555" fill="#7f8c8d" font-family="Arial" font-size="10">1</text>
  <text x="200" y="555" fill="#7f8c8d" font-family="Arial" font-size="10">7</text>
  <text x="300" y="555" fill="#7f8c8d" font-family="Arial" font-size="10">14</text>
  <text x="400" y="555" fill="#7f8c8d" font-family="Arial" font-size="10">21</text>
  <text x="500" y="555" fill="#7f8c8d" font-family="Arial" font-size="10">28</text>
  
  <!-- New tasks line -->
  <polyline points="100,480 150,460 200,440 250,430 300,420 350,410 400,420 450,430 500,425" 
            fill="none" stroke="#27ae60" stroke-width="3"/>
  
  <!-- Closed tasks line -->
  <polyline points="100,500 150,490 200,480 250,470 300,460 350,450 400,440 450,445 500,440" 
            fill="none" stroke="#3498db" stroke-width="3"/>
  
  <!-- Data points -->
  <circle cx="100" cy="480" r="4" fill="#27ae60"/>
  <circle cx="150" cy="460" r="4" fill="#27ae60"/>
  <circle cx="200" cy="440" r="4" fill="#27ae60"/>
  <circle cx="250" cy="430" r="4" fill="#27ae60"/>
  <circle cx="300" cy="420" r="4" fill="#27ae60"/>
  <circle cx="350" cy="410" r="4" fill="#27ae60"/>
  <circle cx="400" cy="420" r="4" fill="#27ae60"/>
  <circle cx="450" cy="430" r="4" fill="#27ae60"/>
  <circle cx="500" cy="425" r="4" fill="#27ae60"/>
  
  <circle cx="100" cy="500" r="4" fill="#3498db"/>
  <circle cx="150" cy="490" r="4" fill="#3498db"/>
  <circle cx="200" cy="480" r="4" fill="#3498db"/>
  <circle cx="250" cy="470" r="4" fill="#3498db"/>
  <circle cx="300" cy="460" r="4" fill="#3498db"/>
  <circle cx="350" cy="450" r="4" fill="#3498db"/>
  <circle cx="400" cy="440" r="4" fill="#3498db"/>
  <circle cx="450" cy="445" r="4" fill="#3498db"/>
  <circle cx="500" cy="440" r="4" fill="#3498db"/>
  
  <!-- Legend -->
  <line x1="90" y1="570" x2="120" y2="570" stroke="#27ae60" stroke-width="3"/>
  <text x="130" y="575" fill="#2c3e50" font-family="Arial" font-size="12">Новые задачи</text>
  
  <line x1="250" y1="570" x2="280" y2="570" stroke="#3498db" stroke-width="3"/>
  <text x="290" y="575" fill="#2c3e50" font-family="Arial" font-size="12">Закрытые задачи</text>
  
  <!-- Manager Performance Table -->
  <rect x="620" y="310" width="550" height="280" fill="white" rx="8" stroke="#ddd"/>
  <text x="640" y="340" fill="#2c3e50" font-family="Arial" font-size="16" font-weight="bold">👥 Загрузка по менеджерам </text>
  <rect x="880" y="325" width="100" height="20" fill="#e8f6f0" stroke="#27ae60" rx="10"/>
  <text x="890" y="338" fill="#27ae60" font-family="Arial" font-size="11" font-weight="bold">все менеджеры</text>
  <rect x="990" y="325" width="80" height="20" fill="#e8f4fd" stroke="#3498db" rx="10"/>
  <text x="1000" y="338" fill="#3498db" font-family="Arial" font-size="11" font-weight="bold">неделя</text>
  
  <!-- Table header -->
  <rect x="640" y="350" width="510" height="25" fill="#ecf0f1"/>
  <text x="660" y="367" fill="#2c3e50" font-family="Arial" font-size="11" font-weight="bold">Менеджер</text>
  <text x="750" y="367" fill="#2c3e50" font-family="Arial" font-size="11" font-weight="bold">Новые</text>
  <text x="820" y="367" fill="#2c3e50" font-family="Arial" font-size="11" font-weight="bold">В работе</text>
  <text x="900" y="367" fill="#2c3e50" font-family="Arial" font-size="11" font-weight="bold">Закрытые</text>
  <text x="980" y="367" fill="#2c3e50" font-family="Arial" font-size="11" font-weight="bold">Эффективность</text>
  
  <!-- Manager rows -->
  <rect x="640" y="375" width="510" height="25" fill="white"/>
  <text x="660" y="392" fill="#2c3e50" font-family="Arial" font-size="11">Иванов</text>
  <rect x="750" y="380" width="30" height="12" fill="#27ae60"/>
  <text x="785" y="389" fill="#2c3e50" font-family="Arial" font-size="9">3</text>
  <rect x="820" y="380" width="60" height="12" fill="#3498db"/>
  <text x="885" y="389" fill="#2c3e50" font-family="Arial" font-size="9">8</text>
  <rect x="900" y="380" width="40" height="12" fill="#e74c3c"/>
  <text x="945" y="389" fill="#2c3e50" font-family="Arial" font-size="9">5</text>
  <text x="990" y="392" fill="#27ae60" font-family="Arial" font-size="11" font-weight="bold">8.2</text>
  
  <rect x="640" y="400" width="510" height="25" fill="#f8f9fa"/>
  <text x="660" y="417" fill="#2c3e50" font-family="Arial" font-size="11">Петров</text>
  <rect x="750" y="405" width="40" height="12" fill="#27ae60"/>
  <text x="795" y="414" fill="#2c3e50" font-family="Arial" font-size="9">4</text>
  <rect x="820" y="405" width="40" height="12" fill="#3498db"/>
  <text x="865" y="414" fill="#2c3e50" font-family="Arial" font-size="9">6</text>
  <rect x="900" y="405" width="30" height="12" fill="#e74c3c"/>
  <text x="935" y="414" fill="#2c3e50" font-family="Arial" font-size="9">3</text>
  <text x="990" y="417" fill="#27ae60" font-family="Arial" font-size="11" font-weight="bold">6.1</text>
  
  <rect x="640" y="425" width="510" height="25" fill="white"/>
  <text x="660" y="442" fill="#2c3e50" font-family="Arial" font-size="11">Козлов</text>
  <rect x="750" y="430" width="10" height="12" fill="#27ae60"/>
  <text x="765" y="439" fill="#2c3e50" font-family="Arial" font-size="9">1</text>
  <rect x="820" y="430" width="70" height="12" fill="#3498db"/>
  <text x="895" y="439" fill="#2c3e50" font-family="Arial" font-size="9">9</text>
  <rect x="900" y="430" width="35" height="12" fill="#e74c3c"/>
  <text x="940" y="439" fill="#2c3e50" font-family="Arial" font-size="9">4</text>
  <text x="990" y="442" fill="#f39c12" font-family="Arial" font-size="11" font-weight="bold">4.3</text>
  
  <!-- Weekly Activity Heatmap -->
  <rect x="30" y="620" width="570" height="200" fill="white" rx="8" stroke="#ddd"/>
  <text x="50" y="650" fill="#2c3e50" font-family="Arial" font-size="16" font-weight="bold">🗓️ Тепловая карта активности по дням</text>
  
  <!-- Heatmap headers -->
  <text x="100" y="680" fill="#2c3e50" font-family="Arial" font-size="12" font-weight="bold">Пн</text>
  <text x="170" y="680" fill="#2c3e50" font-family="Arial" font-size="12" font-weight="bold">Вт</text>
  <text x="240" y="680" fill="#2c3e50" font-family="Arial" font-size="12" font-weight="bold">Ср</text>
  <text x="310" y="680" fill="#2c3e50" font-family="Arial" font-size="12" font-weight="bold">Чт</text>
  <text x="380" y="680" fill="#2c3e50" font-family="Arial" font-size="12" font-weight="bold">Пт</text>
  
  <!-- Week rows -->
  <text x="50" y="705" fill="#2c3e50" font-family="Arial" font-size="11">Нед 1</text>
  <rect x="90" y="690" width="50" height="18" fill="#e74c3c" opacity="0.8"/>
  <rect x="160" y="690" width="50" height="18" fill="#e74c3c" opacity="0.8"/>
  <rect x="230" y="690" width="50" height="18" fill="#e74c3c" opacity="0.8"/>
  <rect x="300" y="690" width="50" height="18" fill="#e74c3c" opacity="0.8"/>
  <rect x="370" y="690" width="50" height="18" fill="#f39c12" opacity="0.8"/>
  
  <text x="50" y="730" fill="#2c3e50" font-family="Arial" font-size="11">Нед 2</text>
  <rect x="90" y="715" width="50" height="18" fill="#e74c3c" opacity="0.8"/>
  <rect x="160" y="715" width="50" height="18" fill="#e74c3c" opacity="0.8"/>
  <rect x="230" y="715" width="50" height="18" fill="#e74c3c" opacity="0.8"/>
  <rect x="300" y="715" width="50" height="18" fill="#f39c12" opacity="0.8"/>
  <rect x="370" y="715" width="50" height="18" fill="#e74c3c" opacity="0.8"/>
  
  <text x="50" y="755" fill="#2c3e50" font-family="Arial" font-size="11">Нед 3</text>
  <rect x="90" y="740" width="50" height="18" fill="#e74c3c" opacity="0.8"/>
  <rect x="160" y="740" width="50" height="18" fill="#e74c3c" opacity="0.8"/>
  <rect x="230" y="740" width="50" height="18" fill="#e74c3c" opacity="0.8"/>
  <rect x="300" y="740" width="50" height="18" fill="#e74c3c" opacity="0.8"/>
  <rect x="370" y="740" width="50" height="18" fill="#e74c3c" opacity="0.8"/>
  
  <text x="50" y="780" fill="#2c3e50" font-family="Arial" font-size="11">Нед 4</text>
  <rect x="90" y="765" width="50" height="18" fill="#e74c3c" opacity="0.8"/>
  <rect x="160" y="765" width="50" height="18" fill="#f39c12" opacity="0.8"/>
  <rect x="230" y="765" width="50" height="18" fill="#e74c3c" opacity="0.8"/>
  <rect x="300" y="765" width="50" height="18" fill="#e74c3c" opacity="0.8"/>
  <rect x="370" y="765" width="50" height="18" fill="#f39c12" opacity="0.8"/>
  
  <!-- Heatmap legend -->
  <rect x="450" y="700" width="15" height="15" fill="#f39c12"/>
  <text x="470" y="712" fill="#2c3e50" font-family="Arial" font-size="10">Средняя нагрузка</text>
  
  <rect x="450" y="720" width="15" height="15" fill="#e74c3c"/>
  <text x="470" y="732" fill="#2c3e50" font-family="Arial" font-size="10">Высокая нагрузка</text>
  
  <!-- Performance Chart -->
  <rect x="620" y="620" width="550" height="200" fill="white" rx="8" stroke="#ddd"/>
  <text x="640" y="650" fill="#2c3e50" font-family="Arial" font-size="16" font-weight="bold">🎯 Эффективность (закрытых задач/неделя)</text>
  
  <!-- Performance bars -->
  <text x="650" y="680" fill="#2c3e50" font-family="Arial" font-size="12">Иванов</text>
  <rect x="720" y="665" width="160" height="16" fill="#27ae60"/>
  <text x="890" y="676" fill="#2c3e50" font-family="Arial" font-size="12" font-weight="bold">8.2</text>
  
  <text x="650" y="705" fill="#2c3e50" font-family="Arial" font-size="12">Петров</text>
  <rect x="720" y="690" width="120" height="16" fill="#27ae60"/>
  <text x="850" y="701" fill="#2c3e50" font-family="Arial" font-size="12" font-weight="bold">6.1</text>
  
  <text x="650" y="730" fill="#2c3e50" font-family="Arial" font-size="12">Козлова</text>
  <rect x="720" y="715" width="120" height="16" fill="#27ae60"/>
  <text x="850" y="726" fill="#2c3e50" font-family="Arial" font-size="12" font-weight="bold">6.0</text>
  
  <text x="650" y="755" fill="#2c3e50" font-family="Arial" font-size="12">Сидоров</text>
  <rect x="720" y="740" width="80" height="16" fill="#f39c12"/>
  <text x="810" y="751" fill="#2c3e50" font-family="Arial" font-size="12" font-weight="bold">4.3</text>
  
  <text x="650" y="780" fill="#2c3e50" font-family="Arial" font-size="12">Новиков</text>
  <rect x="720" y="765" width="60" height="16" fill="#e74c3c"/>
  <text x="790" y="776" fill="#2c3e50" font-family="Arial" font-size="12" font-weight="bold">3.1</text>
  
  <!-- Dropdown for manager filter (simulation) -->
  <rect x="640" y="800" width="200" height="140" fill="white" stroke="#bdc3c7" rx="4" opacity="0.95"/>
  <text x="650" y="820" fill="#2c3e50" font-family="Arial" font-size="12" font-weight="bold">Выберите менеджеров:</text>
  
  <!-- Manager checkboxes -->
  <rect x="650" y="830" width="12" height="12" fill="white" stroke="#3498db"/>
  <text x="647" y="840" fill="#3498db" font-family="Arial" font-size="10">✓</text>
  <text x="670" y="841" fill="#2c3e50" font-family="Arial" font-size="11">Все менеджеры</text>
  
  <rect x="650" y="850" width="12" height="12" fill="white" stroke="#bdc3c7"/>
  <text x="670" y="861" fill="#2c3e50" font-family="Arial" font-size="11">Иванов А.В.</text>
  
  <rect x="650" y="870" width="12" height="12" fill="white" stroke="#bdc3c7"/>
  <text x="670" y="881" fill="#2c3e50" font-family="Arial" font-size="11">Петров И.С.</text>
  
  <rect x="650" y="890" width="12" height="12" fill="white" stroke="#bdc3c7"/>
  <text x="670" y="901" fill="#2c3e50" font-family="Arial" font-size="11">Сидоров П.К.</text>
  
  <rect x="650" y="910" width="12" height="12" fill="white" stroke="#bdc3c7"/>
  <text x="670" y="921" fill="#2c3e50" font-family="Arial" font-size="11">Козлова М.А.</text>
  
  <!-- Footer -->
  <text x="30" y="930" fill="#7f8c8d" font-family="Arial" font-size="12">Обновлено: сегодня в 10:30 | Данные за последние 30 дней | Источник: Bitrix24</text>
</svg>
